<?xml version="1.0" ?><!DOCTYPE svg  PUBLIC '-//W3C//DTD SVG 1.1//EN'  'http://www.w3.org/Graphics/SVG/1.1/DTD/svg11.dtd'><svg height="2048px" style="shape-rendering:geometricPrecision; text-rendering:geometricPrecision; image-rendering:optimizeQuality; fill-rule:evenodd; clip-rule:evenodd" viewBox="0 0 2048 2048" width="2048px" xml:space="preserve" xmlns="http://www.w3.org/2000/svg" xmlns:xlink="http://www.w3.org/1999/xlink"><defs><style type="text/css">
   <![CDATA[
    .fil1 {fill:none}
    .fil0 {fill:#212121;fill-rule:nonzero}
   ]]>
  </style></defs><g id="Layer_x0020_1"><g id="_467649928"><path class="fil0" d="M1024 255.998c212.073,0 404.074,85.9631 543.056,224.946 138.983,138.982 224.946,330.983 224.946,543.056 0,212.073 -85.9631,404.074 -224.946,543.056 -138.982,138.983 -330.983,224.946 -543.056,224.946 -212.073,0 -404.074,-85.9631 -543.056,-224.946 -138.983,-138.982 -224.946,-330.983 -224.946,-543.056 0,-212.073 85.9631,-404.074 224.946,-543.056 138.982,-138.983 330.983,-224.946 543.056,-224.946zm497.806 270.196c-127.396,-127.397 -303.398,-206.195 -497.806,-206.195 -194.407,0 -370.409,78.7973 -497.806,206.195 -127.397,127.396 -206.195,303.398 -206.195,497.806 0,194.407 78.7973,370.409 206.195,497.806 127.396,127.397 303.398,206.195 497.806,206.195 194.407,0 370.409,-78.7973 497.806,-206.195 127.397,-127.396 206.195,-303.398 206.195,-497.806 0,-194.407 -78.7973,-370.409 -206.195,-497.806z" id="_467650240"/><path class="fil0" d="M287.999 991.999c-17.6728,0 -32.0008,14.328 -32.0008,32.0008 0,17.6728 14.328,32.0008 32.0008,32.0008l447.433 0c17.6728,0 32.0008,-14.328 32.0008,-32.0008 0,-17.6728 -14.328,-32.0008 -32.0008,-32.0008l-447.433 0z" id="_467650216"/><path class="fil0" d="M1024 842.533c50.1059,0 95.4733,20.3126 128.314,53.1532 32.8406,32.8406 53.1532,78.2079 53.1532,128.314 0,50.1059 -20.3126,95.4733 -53.1532,128.314 -32.8406,32.8406 -78.2079,53.1532 -128.314,53.1532 -50.1059,0 -95.4733,-20.3126 -128.314,-53.1532 -32.8406,-32.8406 -53.1532,-78.2079 -53.1532,-128.314 0,-50.1059 20.3126,-95.4733 53.1532,-128.314 32.8406,-32.8406 78.2079,-53.1532 128.314,-53.1532zm83.0634 98.4036c-21.254,-21.254 -50.6233,-34.402 -83.0634,-34.402 -32.4402,0 -61.8095,13.148 -83.0634,34.402 -21.254,21.254 -34.402,50.6233 -34.402,83.0634 0,32.4402 13.148,61.8095 34.402,83.0634 21.254,21.254 50.6233,34.402 83.0634,34.402 32.4402,0 61.8095,-13.148 83.0634,-34.402 21.254,-21.254 34.402,-50.6233 34.402,-83.0634 0,-32.4402 -13.148,-61.8095 -34.402,-83.0634z" id="_467650096"/><path class="fil0" d="M1024 703.431c88.5178,0 168.66,35.8831 226.674,93.8953 58.0122,58.0134 93.8953,138.156 93.8953,226.674 0,88.5178 -35.8831,168.66 -93.8953,226.674 -58.0134,58.0122 -138.156,93.8953 -226.674,93.8953 -88.5178,0 -168.66,-35.8831 -226.674,-93.8953 -58.0122,-58.0134 -93.8953,-138.156 -93.8953,-226.674 0,-88.5178 35.8831,-168.66 93.8953,-226.674 58.0134,-58.0122 138.156,-93.8953 226.674,-93.8953zm181.423 139.146c-46.428,-46.4268 -110.571,-75.1442 -181.423,-75.1442 -70.852,0 -134.995,28.7173 -181.423,75.1442 -46.4268,46.428 -75.1442,110.571 -75.1442,181.423 0,70.852 28.7173,134.995 75.1442,181.423 46.428,46.4268 110.571,75.1442 181.423,75.1442 70.852,0 134.995,-28.7173 181.423,-75.1442 46.4268,-46.428 75.1442,-110.571 75.1442,-181.423 0,-70.852 -28.7173,-134.995 -75.1442,-181.423z" id="_467650744"/><path class="fil0" d="M1759.92 1056c17.6728,0 32.0008,-14.328 32.0008,-32.0008 0,-17.6728 -14.328,-32.0008 -32.0008,-32.0008l-447.433 0c-17.6728,0 -32.0008,14.328 -32.0008,32.0008 0,17.6728 14.328,32.0008 32.0008,32.0008l447.433 0z" id="_467650192"/></g></g><rect class="fil1" height="2048" width="2048"/></svg>