<?xml version="1.0" ?><!DOCTYPE svg  PUBLIC '-//W3C//DTD SVG 1.1//EN'  'http://www.w3.org/Graphics/SVG/1.1/DTD/svg11.dtd'><svg height="2048px" style="shape-rendering:geometricPrecision; text-rendering:geometricPrecision; image-rendering:optimizeQuality; fill-rule:evenodd; clip-rule:evenodd" viewBox="0 0 2048 2048" width="2048px" xml:space="preserve" xmlns="http://www.w3.org/2000/svg" xmlns:xlink="http://www.w3.org/1999/xlink"><defs><style type="text/css">
   <![CDATA[
    .fil1 {fill:none}
    .fil0 {fill:#424242}
   ]]>
  </style></defs><g id="Layer_x0020_1"><g id="_358053240"><path class="fil0" d="M1024 255.999c418.805,0 759.276,335.237 767.799,752l-435.074 0c-8.35158,-176.531 -154.128,-317.114 -332.725,-317.114 -178.597,0 -324.373,140.583 -332.725,317.114l-435.074 0c8.52284,-416.763 348.994,-752 767.799,-752zm767.799 784.001c-8.52284,416.763 -348.994,752 -767.799,752 -418.805,0 -759.276,-335.237 -767.799,-752l435.074 0c8.35158,176.531 154.128,317.114 332.725,317.114 178.597,0 324.373,-140.583 332.725,-317.114l435.074 0z" id="_358053672"/><path class="fil0" d="M1024 722.885c166.301,0 301.115,134.815 301.115,301.115 0,166.301 -134.815,301.115 -301.115,301.115 -166.301,0 -301.115,-134.815 -301.115,-301.115 0,-166.301 134.815,-301.115 301.115,-301.115zm0 145.151c86.1367,0 155.965,69.828 155.965,155.965 0,86.1367 -69.828,155.965 -155.965,155.965 -86.1367,0 -155.965,-69.828 -155.965,-155.965 0,-86.1367 69.828,-155.965 155.965,-155.965z" id="_358053576"/></g></g><rect class="fil1" height="2048" width="2048"/></svg>